<svg xmlns="http://www.w3.org/2000/svg" viewBox="0 0 470 235" role="img" aria-label="Soft rounded white cloud">
  <defs>
    <linearGradient id="cloudFill" x1="0" y1="35" x2="0" y2="205" gradientUnits="userSpaceOnUse">
      <stop offset="0" stop-color="#ffffff"/>
      <stop offset="0.56" stop-color="#faf9ff"/>
      <stop offset="1" stop-color="#ddd8ff"/>
    </linearGradient>
    <linearGradient id="cloudShine" x1="0" y1="0" x2="0" y2="1">
      <stop stop-color="#ffffff" stop-opacity=".82"/>
      <stop offset="1" stop-color="#ffffff" stop-opacity="0"/>
    </linearGradient>
    <filter id="shadow" x="-18%" y="-24%" width="136%" height="160%">
      <feDropShadow dx="0" dy="12" stdDeviation="12" flood-color="#6257b5" flood-opacity=".2"/>
    </filter>
  </defs>
  <path filter="url(#shadow)" fill="url(#cloudFill)" d="M48 179C20 168 16 132 36 111c14-15 34-20 55-14 3-36 34-65 72-65 24 0 45 11 58 29 14-13 32-20 52-20 39 0 72 28 79 65 10-8 24-13 39-13 35 0 64 27 64 60 0 29-22 53-51 58-25 5-48-1-68-9-20 17-48 26-77 23-21-2-40-11-55-24-18 15-42 23-67 20-21-2-39-12-52-26-13 1-25-4-37-16Z"/>
  <path fill="url(#cloudShine)" d="M54 133c8-19 26-30 48-29 10-31 35-52 64-52 21 0 40 11 50 28 15-17 35-26 56-26 30 0 56 18 67 45-19-17-43-26-69-23-18 2-35 10-48 22-15-16-35-25-57-25-29 0-55 16-69 41-15-5-29-5-42-1Z" opacity=".72"/>
</svg>
